<svg xmlns="http://www.w3.org/2000/svg" width="1em" height="1em" viewBox="0 0 14 14"><path fill="currentColor" fill-rule="evenodd" d="M12.169.605a.5.5 0 0 0-.677-.284L3.87 3.782a.5.5 0 0 0-.263.626l.115.315a.626.626 0 0 1 .07.137l.994 2.727c.018.05.029.1.034.15l.106.29a.5.5 0 0 0 .605.311l1.271-.355l-1.918 4.708a.75.75 0 0 0 1.389.566l1.682-4.129l1.682 4.129a.75.75 0 0 0 1.39-.566L8.871 7.404l4.72-1.32a.5.5 0 0 0 .335-.653zM3.644 8.089a.63.63 0 0 1-.033-.074l-.908-2.493l-1.18.43l-.026-.071a.75.75 0 1 0-1.41.514l.995 2.727a.75.75 0 1 0 1.409-.514l-.032-.087z" clip-rule="evenodd"/></svg>